  0
SECTION
  2
HEADER
  9
$ACADVER
  1
AC1014
  9
$HANDSEED
  5
FFFF
  9
$INSUNITS
 70
     4
  9
$MEASUREMENT
 70
     1
  0
ENDSEC
  0
SECTION
  2
TABLES
  0
TABLE
  2
VPORT
  5
8
330
0
100
AcDbSymbolTable
 70
     4
  0
VPORT
  5
2E
330
8
100
AcDbSymbolTableRecord
100
AcDbViewportTableRecord
  2
*ACTIVE
 70
     0
 10
0.0
 20
0.0
 11
1.0
 21
1.0
 12
210.0
 22
148.5
 13
0.0
 23
0.0
 14
10.0
 24
10.0
 15
10.0
 25
10.0
 16
0.0
 26
0.0
 36
1.0
 17
0.0
 27
0.0
 37
0.0
 40
341.0
 41
1.24
 42
50.0
 43
0.0
 44
0.0
 50
0.0
 51
0.0
 71
     0
 72
   100
 73
     1
 74
     3
 75
     0
 76
     0
 77
     0
 78
     0
  0
ENDTAB
  0
TABLE
  2
LTYPE
  5
5
330
0
100
AcDbSymbolTable
 70
     1
  0
LTYPE
  5
14
330
5
100
AcDbSymbolTableRecord
100
AcDbLinetypeTableRecord
  2
BYBLOCK
 70
     0
  3

 72
    65
 73
     0
 40
0.0
  0
LTYPE
  5
15
330
5
100
AcDbSymbolTableRecord
100
AcDbLinetypeTableRecord
  2
BYLAYER
 70
     0
  3

 72
    65
 73
     0
 40
0.0
  0
LTYPE
  5
16
330
5
100
AcDbSymbolTableRecord
100
AcDbLinetypeTableRecord
  2
CONTINUOUS
 70
     0
  3
Solid line
 72
    65
 73
     0
 40
0.0
  0
ENDTAB
  0
TABLE
  2
LAYER
  5
2
100
AcDbSymbolTable
 70
3
  0
LAYER
  5
50
100
AcDbSymbolTableRecord
100
AcDbLayerTableRecord
  2
0
 70
0
  6
CONTINUOUS
  0
LAYER
  5
51
100
AcDbSymbolTableRecord
100
AcDbLayerTableRecord
  2
Profile
 70
0
  6
CONTINUOUS
  0
LAYER
  5
52
100
AcDbSymbolTableRecord
100
AcDbLayerTableRecord
  2
Layer_1
 70
0
  6
CONTINUOUS
  0
ENDTAB
  0
TABLE
  2
STYLE
  5
3
330
0
100
AcDbSymbolTable
 70
     1
  0
STYLE
  5
11
330
3
100
AcDbSymbolTableRecord
100
AcDbTextStyleTableRecord
  2
STANDARD
 70
     0
 40
0.0
 41
1.0
 50
0.0
 71
     0
 42
2.5
  3
txt
  4

  0
ENDTAB
  0
TABLE
  2
VIEW
  5
6
330
0
100
AcDbSymbolTable
 70
     0
  0
ENDTAB
  0
TABLE
  2
UCS
  5
7
330
0
100
AcDbSymbolTable
 70
     0
  0
ENDTAB
  0
TABLE
  2
APPID
  5
9
330
0
100
AcDbSymbolTable
 70
     2
  0
APPID
  5
12
330
9
100
AcDbSymbolTableRecord
100
AcDbRegAppTableRecord
  2
ACAD
 70
     0
  0
ENDTAB
  0
TABLE
  2
DIMSTYLE
  5
A
330
0
100
AcDbSymbolTable
 70
     1
  0
DIMSTYLE
105
27
330
A
100
AcDbSymbolTableRecord
100
AcDbDimStyleTableRecord
  2
ISO-25
 70
     0
  3

  4

  5

  6

  7

 40
1.0
 41
2.5
 42
0.625
 43
3.75
 44
1.25
 45
0.0
 46
0.0
 47
0.0
 48
0.0
140
2.5
141
2.5
142
0.0
143
0.03937007874016
144
1.0
145
0.0
146
1.0
147
0.625
 71
     0
 72
     0
 73
     0
 74
     0
 75
     0
 76
     0
 77
     1
 78
     8
170
     0
171
     3
172
     1
173
     0
174
     0
175
     0
176
     0
177
     0
178
     0
270
     2
271
     2
272
     2
273
     2
274
     3
340
11
275
     0
280
     0
281
     0
282
     0
283
     0
284
     8
285
     0
286
     0
287
     3
288
     0
  0
ENDTAB
  0
TABLE
  2
BLOCK_RECORD
  5
1
330
0
100
AcDbSymbolTable
 70
     1
  0
BLOCK_RECORD
  5
1F
330
1
100
AcDbSymbolTableRecord
100
AcDbBlockTableRecord
  2
*MODEL_SPACE
  0
BLOCK_RECORD
  5
1B
330
1
100
AcDbSymbolTableRecord
100
AcDbBlockTableRecord
  2
*PAPER_SPACE
  0
ENDTAB
  0
ENDSEC
  0
SECTION
  2
BLOCKS
  0
BLOCK
  5
20
330
1F
100
AcDbEntity
  8
0
100
AcDbBlockBegin
  2
*MODEL_SPACE
 70
     0
 10
0.0
 20
0.0
 30
0.0
  3
*MODEL_SPACE
  1

  0
ENDBLK
  5
21
330
1F
100
AcDbEntity
  8
0
100
AcDbBlockEnd
  0
BLOCK
  5
1C
330
1B
100
AcDbEntity
 67
     1
  8
0
100
AcDbBlockBegin
  2
*PAPER_SPACE
  1

  0
ENDBLK
  5
1D
330
1B
100
AcDbEntity
 67
     1
  8
0
100
AcDbBlockEnd
  0
ENDSEC
  0
SECTION
  2
ENTITIES
  0
LWPOLYLINE
  5
100
100
AcDbEntity
  8
Profile
 62
7
100
AcDbPolyline
 90
50
 70
1
 10
10.989830
 20
46.943316
 30
0.0
 10
10.938740
 20
46.324776
 30
0.0
 10
9.652723
 20
45.091906
 30
0.0
 10
8.942439
 20
43.724606
 30
0.0
 10
9.285610
 20
42.440211
 30
0.0
 10
9.993307
 20
41.155816
 30
0.0
 10
9.624607
 20
39.056665
 30
0.0
 10
8.981206
 20
36.109577
 30
0.0
 10
8.707839
 20
33.908077
 30
0.0
 10
8.997106
 20
32.306277
 30
0.0
 10
9.191506
 20
31.208377
 30
0.0
 10
9.552807
 20
30.236477
 30
0.0
 10
9.677307
 20
28.672777
 30
0.0
 10
9.440306
 20
27.766877
 30
0.0
 10
8.494129
 20
25.704777
 30
0.0
 10
7.477019
 20
24.483677
 30
0.0
 10
6.245899
 20
22.501877
 30
0.0
 10
5.671579
 20
21.740277
 30
0.0
 10
4.782179
 20
20.900477
 30
0.0
 10
3.905369
 20
20.164677
 30
0.0
 10
3.620439
 20
19.468677
 30
0.0
 10
3.282429
 20
18.732077
 30
0.0
 10
3.203969
 20
18.131977
 30
0.0
 10
3.496029
 20
17.520577
 30
0.0
 10
4.142409
 20
17.032777
 30
0.0
 10
4.694329
 20
16.372177
 30
0.0
 10
5.335029
 20
16.151577
 30
0.0
 10
5.920599
 20
15.933777
 30
0.0
 10
6.990359
 20
15.778477
 30
0.0
 10
8.058568
 20
15.729377
 30
0.0
 10
8.410918
 20
14.475477
 30
0.0
 10
8.305208
 20
13.424977
 30
0.0
 10
7.752669
 20
12.571377
 30
0.0
 10
7.848989
 20
11.899977
 30
0.0
 10
8.249658
 20
11.527777
 30
0.0
 10
9.100706
 20
11.106677
 30
0.0
 10
8.727559
 20
10.594177
 30
0.0
 10
8.312228
 20
10.171177
 30
0.0
 10
8.285798
 20
9.686277
 30
0.0
 10
8.556589
 20
9.151077
 30
0.0
 10
9.190006
 20
8.581277
 30
0.0
 10
9.665507
 20
6.820877
 30
0.0
 10
8.939710
 20
5.323277
 30
0.0
 10
8.840910
 20
4.154677
 30
0.0
 10
9.077706
 20
3.086877
 30
0.0
 10
9.732307
 20
1.556977
 30
0.0
 10
10.849107
 20
0.757177
 30
0.0
 10
12.161507
 20
0.037377
 30
0.0
 10
0.038300
 20
0.037377
 30
0.0
 10
0.037374
 20
46.950826
 30
0.0
  0
ENDSEC
  0
SECTION
  2
OBJECTS
  0
DICTIONARY
  5
C
330
0
100
AcDbDictionary
  3
ACAD_GROUP
350
D
  3
ACAD_MLINESTYLE
350
17
  0
DICTIONARY
  5
D
330
C
100
AcDbDictionary
  0
DICTIONARY
  5
1A
330
C
100
AcDbDictionary
  0
DICTIONARY
  5
17
330
C
100
AcDbDictionary
  3
STANDARD
350
18
  0
DICTIONARY
  5
19
330
C
100
AcDbDictionary
  0
ENDSEC
  0
EOF
