  0
SECTION
  2
HEADER
  9
$ACADVER
  1
AC1014
  9
$HANDSEED
  5
FFFF
  9
$INSUNITS
 70
     4
  9
$MEASUREMENT
 70
     1
  0
ENDSEC
  0
SECTION
  2
TABLES
  0
TABLE
  2
VPORT
  5
8
330
0
100
AcDbSymbolTable
 70
     4
  0
VPORT
  5
2E
330
8
100
AcDbSymbolTableRecord
100
AcDbViewportTableRecord
  2
*ACTIVE
 70
     0
 10
0.0
 20
0.0
 11
1.0
 21
1.0
 12
210.0
 22
148.5
 13
0.0
 23
0.0
 14
10.0
 24
10.0
 15
10.0
 25
10.0
 16
0.0
 26
0.0
 36
1.0
 17
0.0
 27
0.0
 37
0.0
 40
341.0
 41
1.24
 42
50.0
 43
0.0
 44
0.0
 50
0.0
 51
0.0
 71
     0
 72
   100
 73
     1
 74
     3
 75
     0
 76
     0
 77
     0
 78
     0
  0
ENDTAB
  0
TABLE
  2
LTYPE
  5
5
330
0
100
AcDbSymbolTable
 70
     1
  0
LTYPE
  5
14
330
5
100
AcDbSymbolTableRecord
100
AcDbLinetypeTableRecord
  2
BYBLOCK
 70
     0
  3

 72
    65
 73
     0
 40
0.0
  0
LTYPE
  5
15
330
5
100
AcDbSymbolTableRecord
100
AcDbLinetypeTableRecord
  2
BYLAYER
 70
     0
  3

 72
    65
 73
     0
 40
0.0
  0
LTYPE
  5
16
330
5
100
AcDbSymbolTableRecord
100
AcDbLinetypeTableRecord
  2
CONTINUOUS
 70
     0
  3
Solid line
 72
    65
 73
     0
 40
0.0
  0
ENDTAB
  0
TABLE
  2
LAYER
  5
2
100
AcDbSymbolTable
 70
2
  0
LAYER
  5
50
100
AcDbSymbolTableRecord
100
AcDbLayerTableRecord
  2
0
 70
0
  6
CONTINUOUS
  0
LAYER
  5
51
100
AcDbSymbolTableRecord
100
AcDbLayerTableRecord
  2
outline
 70
0
  6
CONTINUOUS
  0
ENDTAB
  0
TABLE
  2
STYLE
  5
3
330
0
100
AcDbSymbolTable
 70
     1
  0
STYLE
  5
11
330
3
100
AcDbSymbolTableRecord
100
AcDbTextStyleTableRecord
  2
STANDARD
 70
     0
 40
0.0
 41
1.0
 50
0.0
 71
     0
 42
2.5
  3
txt
  4

  0
ENDTAB
  0
TABLE
  2
VIEW
  5
6
330
0
100
AcDbSymbolTable
 70
     0
  0
ENDTAB
  0
TABLE
  2
UCS
  5
7
330
0
100
AcDbSymbolTable
 70
     0
  0
ENDTAB
  0
TABLE
  2
APPID
  5
9
330
0
100
AcDbSymbolTable
 70
     2
  0
APPID
  5
12
330
9
100
AcDbSymbolTableRecord
100
AcDbRegAppTableRecord
  2
ACAD
 70
     0
  0
ENDTAB
  0
TABLE
  2
DIMSTYLE
  5
A
330
0
100
AcDbSymbolTable
 70
     1
  0
DIMSTYLE
105
27
330
A
100
AcDbSymbolTableRecord
100
AcDbDimStyleTableRecord
  2
ISO-25
 70
     0
  3

  4

  5

  6

  7

 40
1.0
 41
2.5
 42
0.625
 43
3.75
 44
1.25
 45
0.0
 46
0.0
 47
0.0
 48
0.0
140
2.5
141
2.5
142
0.0
143
0.03937007874016
144
1.0
145
0.0
146
1.0
147
0.625
 71
     0
 72
     0
 73
     0
 74
     0
 75
     0
 76
     0
 77
     1
 78
     8
170
     0
171
     3
172
     1
173
     0
174
     0
175
     0
176
     0
177
     0
178
     0
270
     2
271
     2
272
     2
273
     2
274
     3
340
11
275
     0
280
     0
281
     0
282
     0
283
     0
284
     8
285
     0
286
     0
287
     3
288
     0
  0
ENDTAB
  0
TABLE
  2
BLOCK_RECORD
  5
1
330
0
100
AcDbSymbolTable
 70
     1
  0
BLOCK_RECORD
  5
1F
330
1
100
AcDbSymbolTableRecord
100
AcDbBlockTableRecord
  2
*MODEL_SPACE
  0
BLOCK_RECORD
  5
1B
330
1
100
AcDbSymbolTableRecord
100
AcDbBlockTableRecord
  2
*PAPER_SPACE
  0
ENDTAB
  0
ENDSEC
  0
SECTION
  2
BLOCKS
  0
BLOCK
  5
20
330
1F
100
AcDbEntity
  8
0
100
AcDbBlockBegin
  2
*MODEL_SPACE
 70
     0
 10
0.0
 20
0.0
 30
0.0
  3
*MODEL_SPACE
  1

  0
ENDBLK
  5
21
330
1F
100
AcDbEntity
  8
0
100
AcDbBlockEnd
  0
BLOCK
  5
1C
330
1B
100
AcDbEntity
 67
     1
  8
0
100
AcDbBlockBegin
  2
*PAPER_SPACE
  1

  0
ENDBLK
  5
1D
330
1B
100
AcDbEntity
 67
     1
  8
0
100
AcDbBlockEnd
  0
ENDSEC
  0
SECTION
  2
ENTITIES
  0
LWPOLYLINE
  5
100
100
AcDbEntity
  8
outline
 62
7
100
AcDbPolyline
 90
86
 70
1
 10
14.674773
 20
0.012393
 30
0.0
 10
14.212215
 20
0.358521
 30
0.0
 10
13.632495
 20
0.409242
 30
0.0
 10
12.764273
 20
0.649351
 30
0.0
 10
12.218771
 20
0.688695
 30
0.0
 10
11.623104
 20
0.711449
 30
0.0
 10
10.977668
 20
0.888640
 30
0.0
 10
10.404679
 20
1.077288
 30
0.0
 10
9.834814
 20
1.471570
 30
0.0
 10
9.438209
 20
1.796214
 30
0.0
 10
9.066366
 20
2.364380
 30
0.0
 10
8.854239
 20
2.820046
 30
0.0
 10
8.664231
 20
3.249914
 30
0.0
 10
8.649494
 20
3.902800
 30
0.0
 10
8.752390
 20
4.525470
 30
0.0
 10
9.037765
 20
5.564304
 30
0.0
 10
9.269606
 20
6.524530
 30
0.0
 10
9.506974
 20
7.350030
 30
0.0
 10
9.527241
 20
7.984818
 30
0.0
 10
9.417132
 20
8.427254
 30
0.0
 10
9.146985
 20
9.048575
 30
0.0
 10
8.958501
 20
9.605444
 30
0.0
 10
8.629772
 20
9.892120
 30
0.0
 10
7.992592
 20
10.277406
 30
0.0
 10
7.564490
 20
10.527940
 30
0.0
 10
7.239209
 20
10.831655
 30
0.0
 10
7.125012
 20
11.032474
 30
0.0
 10
7.026362
 20
11.301502
 30
0.0
 10
7.074366
 20
11.638661
 30
0.0
 10
7.229673
 20
12.146476
 30
0.0
 10
7.491325
 20
12.699852
 30
0.0
 10
7.838885
 20
13.272278
 30
0.0
 10
8.136599
 20
13.613511
 30
0.0
 10
7.896984
 20
13.916988
 30
0.0
 10
7.533878
 20
14.165485
 30
0.0
 10
7.215730
 20
14.817656
 30
0.0
 10
6.969302
 20
15.518141
 30
0.0
 10
6.917455
 20
16.148193
 30
0.0
 10
7.020512
 20
17.167077
 30
0.0
 10
7.196815
 20
18.139394
 30
0.0
 10
7.432744
 20
18.793021
 30
0.0
 10
7.673239
 20
19.469058
 30
0.0
 10
7.134389
 20
19.561212
 30
0.0
 10
6.493923
 20
19.639820
 30
0.0
 10
6.202458
 20
19.791452
 30
0.0
 10
5.597094
 20
20.092945
 30
0.0
 10
5.159216
 20
20.407720
 30
0.0
 10
4.580295
 20
21.156544
 30
0.0
 10
4.349737
 20
21.764609
 30
0.0
 10
4.341799
 20
22.370796
 30
0.0
 10
4.373454
 20
22.974072
 30
0.0
 10
4.695050
 20
23.738904
 30
0.0
 10
5.308830
 20
24.577791
 30
0.0
 10
5.969730
 20
25.218268
 30
0.0
 10
6.580706
 20
25.816094
 30
0.0
 10
7.177418
 20
26.308405
 30
0.0
 10
7.735501
 20
26.989177
 30
0.0
 10
8.199101
 20
27.613435
 30
0.0
 10
8.546581
 20
27.966628
 30
0.0
 10
9.006337
 20
28.460764
 30
0.0
 10
9.607214
 20
29.168603
 30
0.0
 10
10.124509
 20
29.790401
 30
0.0
 10
10.640600
 20
30.420691
 30
0.0
 10
10.806007
 20
30.674347
 30
0.0
 10
10.845112
 20
31.192031
 30
0.0
 10
10.771066
 20
31.873359
 30
0.0
 10
10.702385
 20
32.316695
 30
0.0
 10
10.579293
 20
32.792548
 30
0.0
 10
10.304899
 20
33.245092
 30
0.0
 10
10.211057
 20
34.014421
 30
0.0
 10
10.213438
 20
35.118077
 30
0.0
 10
10.309283
 20
35.918362
 30
0.0
 10
10.418511
 20
36.552330
 30
0.0
 10
10.861516
 20
37.770419
 30
0.0
 10
11.242815
 20
38.431904
 30
0.0
 10
11.377930
 20
39.175410
 30
0.0
 10
10.911253
 20
39.902167
 30
0.0
 10
10.444575
 20
40.628898
 30
0.0
 10
10.306148
 20
41.540255
 30
0.0
 10
10.167718
 20
42.451639
 30
0.0
 10
9.372796
 20
42.993744
 30
0.0
 10
8.413747
 20
43.371701
 30
0.0
 10
8.111196
 20
44.262580
 30
0.0
 10
7.644519
 20
44.989311
 30
0.0
 10
0.010160
 20
44.989311
 30
0.0
 10
0.010160
 20
0.009827
 30
0.0
  0
ENDSEC
  0
SECTION
  2
OBJECTS
  0
DICTIONARY
  5
C
330
0
100
AcDbDictionary
  3
ACAD_GROUP
350
D
  3
ACAD_MLINESTYLE
350
17
  0
DICTIONARY
  5
D
330
C
100
AcDbDictionary
  0
DICTIONARY
  5
1A
330
C
100
AcDbDictionary
  0
DICTIONARY
  5
17
330
C
100
AcDbDictionary
  3
STANDARD
350
18
  0
DICTIONARY
  5
19
330
C
100
AcDbDictionary
  0
ENDSEC
  0
EOF
