  0
SECTION
  2
HEADER
  9
$ACADVER
  1
AC1014
  9
$HANDSEED
  5
FFFF
  9
$INSUNITS
 70
     4
  9
$MEASUREMENT
 70
     1
  0
ENDSEC
  0
SECTION
  2
TABLES
  0
TABLE
  2
VPORT
  5
8
330
0
100
AcDbSymbolTable
 70
     4
  0
VPORT
  5
2E
330
8
100
AcDbSymbolTableRecord
100
AcDbViewportTableRecord
  2
*ACTIVE
 70
     0
 10
0.0
 20
0.0
 11
1.0
 21
1.0
 12
210.0
 22
148.5
 13
0.0
 23
0.0
 14
10.0
 24
10.0
 15
10.0
 25
10.0
 16
0.0
 26
0.0
 36
1.0
 17
0.0
 27
0.0
 37
0.0
 40
341.0
 41
1.24
 42
50.0
 43
0.0
 44
0.0
 50
0.0
 51
0.0
 71
     0
 72
   100
 73
     1
 74
     3
 75
     0
 76
     0
 77
     0
 78
     0
  0
ENDTAB
  0
TABLE
  2
LTYPE
  5
5
330
0
100
AcDbSymbolTable
 70
     1
  0
LTYPE
  5
14
330
5
100
AcDbSymbolTableRecord
100
AcDbLinetypeTableRecord
  2
BYBLOCK
 70
     0
  3

 72
    65
 73
     0
 40
0.0
  0
LTYPE
  5
15
330
5
100
AcDbSymbolTableRecord
100
AcDbLinetypeTableRecord
  2
BYLAYER
 70
     0
  3

 72
    65
 73
     0
 40
0.0
  0
LTYPE
  5
16
330
5
100
AcDbSymbolTableRecord
100
AcDbLinetypeTableRecord
  2
CONTINUOUS
 70
     0
  3
Solid line
 72
    65
 73
     0
 40
0.0
  0
ENDTAB
  0
TABLE
  2
LAYER
  5
2
100
AcDbSymbolTable
 70
2
  0
LAYER
  5
50
100
AcDbSymbolTableRecord
100
AcDbLayerTableRecord
  2
0
 70
0
  6
CONTINUOUS
  0
LAYER
  5
51
100
AcDbSymbolTableRecord
100
AcDbLayerTableRecord
  2
outline
 70
0
  6
CONTINUOUS
  0
ENDTAB
  0
TABLE
  2
STYLE
  5
3
330
0
100
AcDbSymbolTable
 70
     1
  0
STYLE
  5
11
330
3
100
AcDbSymbolTableRecord
100
AcDbTextStyleTableRecord
  2
STANDARD
 70
     0
 40
0.0
 41
1.0
 50
0.0
 71
     0
 42
2.5
  3
txt
  4

  0
ENDTAB
  0
TABLE
  2
VIEW
  5
6
330
0
100
AcDbSymbolTable
 70
     0
  0
ENDTAB
  0
TABLE
  2
UCS
  5
7
330
0
100
AcDbSymbolTable
 70
     0
  0
ENDTAB
  0
TABLE
  2
APPID
  5
9
330
0
100
AcDbSymbolTable
 70
     2
  0
APPID
  5
12
330
9
100
AcDbSymbolTableRecord
100
AcDbRegAppTableRecord
  2
ACAD
 70
     0
  0
ENDTAB
  0
TABLE
  2
DIMSTYLE
  5
A
330
0
100
AcDbSymbolTable
 70
     1
  0
DIMSTYLE
105
27
330
A
100
AcDbSymbolTableRecord
100
AcDbDimStyleTableRecord
  2
ISO-25
 70
     0
  3

  4

  5

  6

  7

 40
1.0
 41
2.5
 42
0.625
 43
3.75
 44
1.25
 45
0.0
 46
0.0
 47
0.0
 48
0.0
140
2.5
141
2.5
142
0.0
143
0.03937007874016
144
1.0
145
0.0
146
1.0
147
0.625
 71
     0
 72
     0
 73
     0
 74
     0
 75
     0
 76
     0
 77
     1
 78
     8
170
     0
171
     3
172
     1
173
     0
174
     0
175
     0
176
     0
177
     0
178
     0
270
     2
271
     2
272
     2
273
     2
274
     3
340
11
275
     0
280
     0
281
     0
282
     0
283
     0
284
     8
285
     0
286
     0
287
     3
288
     0
  0
ENDTAB
  0
TABLE
  2
BLOCK_RECORD
  5
1
330
0
100
AcDbSymbolTable
 70
     1
  0
BLOCK_RECORD
  5
1F
330
1
100
AcDbSymbolTableRecord
100
AcDbBlockTableRecord
  2
*MODEL_SPACE
  0
BLOCK_RECORD
  5
1B
330
1
100
AcDbSymbolTableRecord
100
AcDbBlockTableRecord
  2
*PAPER_SPACE
  0
ENDTAB
  0
ENDSEC
  0
SECTION
  2
BLOCKS
  0
BLOCK
  5
20
330
1F
100
AcDbEntity
  8
0
100
AcDbBlockBegin
  2
*MODEL_SPACE
 70
     0
 10
0.0
 20
0.0
 30
0.0
  3
*MODEL_SPACE
  1

  0
ENDBLK
  5
21
330
1F
100
AcDbEntity
  8
0
100
AcDbBlockEnd
  0
BLOCK
  5
1C
330
1B
100
AcDbEntity
 67
     1
  8
0
100
AcDbBlockBegin
  2
*PAPER_SPACE
  1

  0
ENDBLK
  5
1D
330
1B
100
AcDbEntity
 67
     1
  8
0
100
AcDbBlockEnd
  0
ENDSEC
  0
SECTION
  2
ENTITIES
  0
LWPOLYLINE
  5
100
100
AcDbEntity
  8
outline
 62
7
100
AcDbPolyline
 90
86
 70
1
 10
13.044183
 20
0.011306
 30
0.0
 10
12.633018
 20
0.318963
 30
0.0
 10
12.117710
 20
0.364048
 30
0.0
 10
11.345961
 20
0.577488
 30
0.0
 10
10.861069
 20
0.612439
 30
0.0
 10
10.331585
 20
0.632812
 30
0.0
 10
9.757865
 20
0.790292
 30
0.0
 10
9.248542
 20
0.957985
 30
0.0
 10
8.741995
 20
1.308452
 30
0.0
 10
8.389456
 20
1.597033
 30
0.0
 10
8.058931
 20
2.102070
 30
0.0
 10
7.870373
 20
2.507120
 30
0.0
 10
7.701479
 20
2.889232
 30
0.0
 10
7.688382
 20
3.469569
 30
0.0
 10
7.779846
 20
4.023051
 30
0.0
 10
8.033509
 20
4.946473
 30
0.0
 10
8.239591
 20
5.799992
 30
0.0
 10
8.450588
 20
6.533761
 30
0.0
 10
8.468606
 20
7.098012
 30
0.0
 10
8.370732
 20
7.491315
 30
0.0
 10
8.130601
 20
8.043580
 30
0.0
 10
7.963059
 20
8.538589
 30
0.0
 10
7.670856
 20
8.793382
 30
0.0
 10
7.104473
 20
9.135885
 30
0.0
 10
6.723938
 20
9.358559
 30
0.0
 10
6.434799
 20
9.628540
 30
0.0
 10
6.333292
 20
9.807054
 30
0.0
 10
6.245601
 20
10.046184
 30
0.0
 10
6.288270
 20
10.345878
 30
0.0
 10
6.426322
 20
10.797284
 30
0.0
 10
6.658901
 20
11.289144
 30
0.0
 10
6.967845
 20
11.797991
 30
0.0
 10
7.232481
 20
12.101283
 30
0.0
 10
7.019489
 20
12.371052
 30
0.0
 10
6.696729
 20
12.591952
 30
0.0
 10
6.413929
 20
13.171654
 30
0.0
 10
6.194883
 20
13.794325
 30
0.0
 10
6.148795
 20
14.354368
 30
0.0
 10
6.240402
 20
15.260037
 30
0.0
 10
6.397117
 20
16.124325
 30
0.0
 10
6.606831
 20
16.705297
 30
0.0
 10
6.820604
 20
17.306219
 30
0.0
 10
6.341626
 20
17.388160
 30
0.0
 10
5.772322
 20
17.458037
 30
0.0
 10
5.513242
 20
17.592816
 30
0.0
 10
4.975140
 20
17.860786
 30
0.0
 10
4.585917
 20
18.140609
 30
0.0
 10
4.071321
 20
18.806221
 30
0.0
 10
3.866380
 20
19.346738
 30
0.0
 10
3.859316
 20
19.885562
 30
0.0
 10
3.887452
 20
20.421793
 30
0.0
 10
4.173315
 20
21.101667
 30
0.0
 10
4.718897
 20
21.847342
 30
0.0
 10
5.306367
 20
22.416646
 30
0.0
 10
5.849456
 20
22.948062
 30
0.0
 10
6.379864
 20
23.385630
 30
0.0
 10
6.875939
 20
23.990785
 30
0.0
 10
7.288030
 20
24.545695
 30
0.0
 10
7.596899
 20
24.859623
 30
0.0
 10
8.005572
 20
25.298858
 30
0.0
 10
8.539684
 20
25.928064
 30
0.0
 10
8.999501
 20
26.480778
 30
0.0
 10
9.458248
 20
27.041034
 30
0.0
 10
9.605277
 20
27.266485
 30
0.0
 10
9.640038
 20
27.726648
 30
0.0
 10
9.574218
 20
28.332280
 30
0.0
 10
9.513171
 20
28.726350
 30
0.0
 10
9.403755
 20
29.149339
 30
0.0
 10
9.159849
 20
29.551612
 30
0.0
 10
9.076434
 20
30.235454
 30
0.0
 10
9.078550
 20
31.216476
 30
0.0
 10
9.163746
 20
31.927835
 30
0.0
 10
9.260838
 20
32.491371
 30
0.0
 10
9.654622
 20
33.574125
 30
0.0
 10
9.993553
 20
34.162082
 30
0.0
 10
10.113653
 20
34.823012
 30
0.0
 10
9.698831
 20
35.468992
 30
0.0
 10
9.284007
 20
36.114972
 30
0.0
 10
9.160960
 20
36.925073
 30
0.0
 10
9.037910
 20
37.735201
 30
0.0
 10
8.331314
 20
38.217060
 30
0.0
 10
7.478826
 20
38.553028
 30
0.0
 10
7.209891
 20
39.344900
 30
0.0
 10
6.795069
 20
39.990906
 30
0.0
 10
0.009017
 20
39.990906
 30
0.0
 10
0.009017
 20
0.009136
 30
0.0
  0
ENDSEC
  0
SECTION
  2
OBJECTS
  0
DICTIONARY
  5
C
330
0
100
AcDbDictionary
  3
ACAD_GROUP
350
D
  3
ACAD_MLINESTYLE
350
17
  0
DICTIONARY
  5
D
330
C
100
AcDbDictionary
  0
DICTIONARY
  5
1A
330
C
100
AcDbDictionary
  0
DICTIONARY
  5
17
330
C
100
AcDbDictionary
  3
STANDARD
350
18
  0
DICTIONARY
  5
19
330
C
100
AcDbDictionary
  0
ENDSEC
  0
EOF
