<?xml version="1.0" encoding="UTF-8" standalone="no"?>
<!-- Created with Inkscape (http://www.inkscape.org/) -->

<svg
   width="8.8325052mm"
   height="8.6126318mm"
   viewBox="0 0 8.8325052 8.6126318"
   version="1.1"
   id="svg3302"
   xml:space="preserve"
   inkscape:version="1.2.2 (b0a8486541, 2022-12-01)"
   sodipodi:docname="twig.svg"
   xmlns:inkscape="http://www.inkscape.org/namespaces/inkscape"
   xmlns:sodipodi="http://sodipodi.sourceforge.net/DTD/sodipodi-0.dtd"
   xmlns="http://www.w3.org/2000/svg"
   xmlns:svg="http://www.w3.org/2000/svg"><sodipodi:namedview
     id="namedview3304"
     pagecolor="#ffffff"
     bordercolor="#666666"
     borderopacity="1.0"
     inkscape:showpageshadow="2"
     inkscape:pageopacity="0.0"
     inkscape:pagecheckerboard="0"
     inkscape:deskcolor="#d1d1d1"
     inkscape:document-units="mm"
     showgrid="false"
     inkscape:zoom="16.64826"
     inkscape:cx="27.720614"
     inkscape:cy="23.185606"
     inkscape:window-width="2560"
     inkscape:window-height="1371"
     inkscape:window-x="0"
     inkscape:window-y="0"
     inkscape:window-maximized="1"
     inkscape:current-layer="layer1" /><defs
     id="defs3299" /><g
     inkscape:label="Layer 1"
     inkscape:groupmode="layer"
     id="layer1"><path
       style="fill:#070707;stroke-width:0.0423333"
       d="m 4.4163817,8.57616 c -0.89011,-0.19269 -1.65077,-0.63059 -1.88105,-1.0829 -0.0415,-0.0815 -0.0869,-0.19579 -0.10087,-0.254 -0.014,-0.0582 -0.0977,-0.18562 -0.18593,-0.28314 -0.0883,-0.0975 -0.19625,-0.27849 -0.23996,-0.40216 -0.0437,-0.12368 -0.11515,-0.2703 -0.15875,-0.32582 -0.0436,-0.0555 -0.0793,-0.13216 -0.0793,-0.17029 0,-0.0381 -0.0619,-0.10319 -0.13758,-0.14458 -0.19725,-0.10787 -0.35955,-0.25873 -0.37773,-0.35112 -0.0111,-0.0566 -0.0521,-0.0797 -0.14102,-0.0797 -0.0786,0 -0.13003004,-0.0241 -0.13794004,-0.0646 -0.007,-0.0355 -0.0549,-0.0832 -0.10659,-0.10584 -0.0517,-0.0227 -0.10006,-0.0841 -0.1075,-0.13649 -0.007,-0.0524 -0.0401,-0.0952 -0.0726,-0.0952 -0.0325,0 -0.0819,-0.0429 -0.10981,-0.0953 -0.0279,-0.0524 -0.0773,-0.11482 -0.10968,-0.13874 -0.0324,-0.0239 -0.0632,-0.0716 -0.0684,-0.10583 -0.005,-0.0343 -0.0265,-0.0897 -0.0474,-0.12319 -0.0696,-0.11164 -0.14137,-0.49876 -0.10348,-0.55855 0.0646,-0.10201 0.0406,-0.33758 -0.0456,-0.44714 -0.046,-0.0584 -0.095,-0.17572 -0.10904,-0.26067 -0.014,-0.085 -0.0461,-0.20861 -0.0714,-0.27479 -0.0354,-0.0927 -0.0332,-0.12816 0.009,-0.15446 0.0368,-0.0227 0.0463,-0.0789 0.0285,-0.16786 -0.0181,-0.0903 0.007,-0.23249 0.078,-0.4382 0.091,-0.26442 0.14348,-0.34181 0.39916,-0.58817 0.16193,-0.15602 0.37648,-0.33481 0.47677004,-0.39731 0.19375,-0.12074 0.58628,-0.4375 0.74125,-0.59817 0.0513,-0.0532 0.11318,-0.0967 0.13758,-0.0967 0.0244,0 0.082,-0.0376 0.12794,-0.0836 0.046,-0.046 0.13647,-0.0948 0.20109,-0.10861 0.0646,-0.0138 0.17004,-0.0535 0.23426,-0.0883 0.0642,-0.0348 0.14995,-0.06 0.1905,-0.0558 0.1369,0.0139 0.177,-0.002 0.15429,-0.0612 -0.0162,-0.0422 0.0589,-0.0853 0.26402,-0.15153 0.25884,-0.0836 0.29137,-0.0861 0.33553,-0.0257 0.0623,0.0852 0.16248,0.0878 0.13008,0.003 -0.0188,-0.0491 0.01,-0.0635 0.12526,-0.0635 0.0823,0 0.1903,0.0218 0.24003,0.0484 0.0501,0.0268 0.2957,0.0504 0.55096,0.0529 0.38138,0.004 0.46961,0.0169 0.51324,0.0766 0.0335,0.0458 0.0855,0.0635 0.14283,0.0485 0.0716,-0.0187 0.096,-1.2e-4 0.11871,0.0902 0.0216,0.0861 0.0485,0.10856 0.1104,0.0924 0.10343,-0.0271 0.36883,0.0816 0.40042,0.16389 0.0142,0.0369 0.0794,0.0622 0.16093,0.0622 0.1806,0 0.30275,0.12716 0.23812,0.24791 -0.0636,0.11884 -8e-5,0.1484 0.29592,0.13772 0.17512,-0.006 0.2977,0.0168 0.4377,0.0826 0.10695,0.0503 0.19446,0.10629 0.19446,0.12448 0,0.0182 0.0471,0.0449 0.10461,0.0593 0.0575,0.0144 0.12449,0.0634 0.1488,0.10883 0.0243,0.0454 0.12487,0.13819 0.22347,0.20617 0.0986,0.068 0.3049,0.24631 0.45843,0.3963 0.22703,0.22178 0.28432,0.30509 0.30689,0.44622 0.0153,0.0954 0.0757,0.23048 0.13425,0.30009 0.23618,0.28069 0.44225,0.94683 0.38456,1.24316 -0.0149,0.0768 -0.0647,0.18728 -0.11062,0.24549 -0.0696,0.0883 -0.0901,0.0955 -0.12378,0.0436 -0.0462,-0.0714 -0.0417,-0.0752 -0.16548,0.14078 -0.17262,0.30126 -0.39968,1.00457 -0.35875,1.11123 0.0127,0.0331 0.005,0.0837 -0.0182,0.11255 -0.0227,0.0288 -0.0544,0.1381 -0.0704,0.24288 -0.0329,0.21581 -0.13015,0.38968 -0.20788,0.37183 -0.0686,-0.0157 -0.0827,0.014 -0.0486,0.10278 0.0172,0.0448 -0.0465,0.22517 -0.1666,0.4721 -0.10692,0.21981 -0.1944,0.41839 -0.1944,0.4413 0,0.0487 -0.0753,0.19421 -0.18528,0.35788 -0.0607,0.0904 -0.10041,0.11043 -0.17919,0.0907 -0.0651,-0.0164 -0.1012,-0.007 -0.1012,0.026 0,0.0287 0.0285,0.0405 0.0645,0.0267 0.0531,-0.0204 0.0563,-0.01 0.0184,0.0614 -0.0597,0.11151 -0.15322,0.14591 -0.22801,0.0838 -0.0475,-0.0394 -0.0834,-0.0192 -0.17938,0.10109 -0.066,0.0827 -0.15194,0.15038 -0.191,0.15039 -0.0391,0 -0.11554,0.0569 -0.16995,0.12641 -0.10295,0.13154 -0.24082,0.17723 -0.77504,0.25681 -0.47711,0.0711 -0.76193,0.0773 -1.016,0.0223 z"
       id="path3348" /></g></svg>
